<svg version="1.0" xmlns="http://www.w3.org/2000/svg" width="800.000000" height="800.000000" viewBox="0 0 800.000000 800.000000" preserveAspectRatio="xMidYMid meet">
  <metadata>
    <rdf:RDF xmlns:rdf="http://www.w3.org/1999/02/22-rdf-syntax-ns#" xmlns:rdfs="http://www.w3.org/2000/01/rdf-schema#" xmlns:dc="http://purl.org/dc/elements/1.1/">
      <rdf:Description dc:format="image/svg+xml" dc:Label="1" dc:ContentProducer="001191330110MACRLGPT8B00000" dc:ProduceID="373853988" dc:ReservedCode1="p7jlfMG60zNbe+5zqizkJbI2t+a1eJtwTe9A+56lEC4=" dc:ContentPropagator="001191330110MACRLGPT8B00000" dc:PropagateID="373853988" dc:ReservedCode2="p7jlfMG60zNbe+5zqizkJbI2t+a1eJtwTe9A+56lEC4="/>
    </rdf:RDF>
  </metadata>
  <g transform="translate(0.000000,800.000000) scale(0.100000,-0.100000)" fill="#000000" stroke="none">
    <path d="M4450 6345 c-7 -8 -15 -56 -18 -108 -2 -50 -8 -97 -13 -103 -5 -5 -15 -39 -23 -73 -8 -35 -16 -65 -18 -67 -2 -2 -51 -19 -108 -39 -57 -20 -137 -53 -179 -74 -67 -33 -88 -39 -171 -44 -107 -7 -200 -32 -309 -84 -213 -102 -378 -407 -435 -808 -46 -322 -22 -580 67 -750 49 -92 145 -182 247 -232 47 -23 110 -47 141 -53 l55 -12 103 -249 c57 -136 108 -252 114 -257 7 -5 35 -17 64 -26 l51 -17 -97 -97 c-53 -53 -130 -143 -170 -200 -40 -56 -79 -102 -87 -102 -8 0 -25 -7 -37 -14 -12 -8 -48 -18 -81 -21 -67 -7 -103 -19 -128 -42 -27 -24 -168 -315 -168 -347 0 -32 12 -57 51 -107 34 -43 36 -62 10 -112 -11 -21 -25 -70 -31 -108 -19 -112 5 -189 65 -215 50 -21 77 -17 121 14 33 23 47 27 86 24 58 -5 94 15 161 88 25 27 54 50 64 50 10 0 30 6 44 14 l26 13 5 -131 c3 -72 1 -139 -3 -148 -5 -9 -9 -44 -9 -77 0 -71 2 -73 120 -120 179 -71 403 -118 585 -123 115 -3 125 1 125 55 0 24 2 26 19 17 33 -17 75 -11 122 18 39 25 48 27 87 18 55 -12 102 10 184 83 55 50 57 51 85 36 70 -37 95 -16 267 215 152 206 166 233 144 289 -15 38 -15 40 14 83 27 40 29 48 25 114 -10 141 -130 440 -249 619 -26 39 -78 109 -117 156 l-70 87 46 63 c25 35 47 66 49 68 1 1 31 -4 66 -13 209 -52 433 14 608 180 47 46 100 102 115 124 19 27 48 52 85 70 147 74 250 274 250 485 0 54 -7 113 -16 145 -9 30 -20 111 -24 180 -12 206 -67 369 -165 493 -55 69 -147 139 -212 162 -27 9 -77 31 -114 50 -36 19 -87 39 -113 45 -32 7 -66 26 -107 60 -34 28 -94 73 -135 101 -65 43 -74 53 -68 72 18 55 34 124 34 145 0 12 18 58 40 101 45 88 48 110 21 135 -25 23 -273 129 -411 176 -154 53 -361 105 -491 124 -133 20 -173 20 -189 1z m215 -116 c85 -16 177 -45 273 -86 87 -37 106 -54 31 -27 -24 8 -111 31 -194 50 -203 46 -210 48 -213 68 -3 13 2 16 20 12 13 -3 50 -10 83 -17z m-70 -134 c235 -45 584 -163 783 -264 48 -24 51 -40 26 -114 l-16 -46 -58 29 c-198 100 -597 231 -824 270 -73 13 -72 12 -55 90 13 59 15 59 144 35z m60 -215 c381 -94 682 -222 899 -383 l70 -52 -74 -6 c-148 -11 -248 -58 -350 -160 -53 -54 -129 -162 -143 -202 -1 -5 -63 13 -137 41 -286 106 -580 197 -855 262 -157 38 -319 70 -351 70 -13 0 -24 3 -24 8 0 12 68 94 143 171 110 113 212 177 407 258 100 42 108 43 180 38 41 -3 147 -23 235 -45z m-856 -207 c-47 -49 -106 -118 -133 -155 -30 -44 -55 -68 -67 -68 -33 0 -57 -36 -83 -122 -57 -188 -94 -464 -82 -618 l6 -75 -19 51 c-47 129 -52 302 -11 458 35 139 155 365 246 466 50 55 185 146 223 150 2 0 -34 -39 -80 -87z m-184 0 c-144 -148 -242 -373 -302 -688 -21 -109 -29 -454 -14 -586 7 -57 21 -139 33 -182 11 -43 18 -80 16 -82 -9 -9 -79 122 -99 185 -32 105 -42 210 -36 405 8 275 59 493 164 703 55 109 149 218 227 263 28 16 52 29 54 29 1 0 -18 -21 -43 -47z m1865 -313 c0 -5 -4 -10 -10 -10 -5 0 -10 5 -10 10 0 6 5 10 10 10 6 0 10 -4 10 -10z m100 -25 c0 -8 -4 -15 -10 -15 -5 0 -10 7 -10 15 0 8 5 15 10 15 6 0 10 -7 10 -15z m-90 -35 c9 -16 8 -22 -5 -26 -21 -9 -37 8 -29 29 8 23 21 21 34 -3z m442 -5 c142 -43 269 -181 328 -356 23 -66 50 -204 50 -251 l0 -27 -51 35 c-28 19 -57 34 -64 34 -8 0 -34 15 -59 34 -63 49 -112 62 -173 47 -69 -18 -123 -52 -182 -117 -98 -107 -158 -264 -168 -440 -16 -284 119 -461 312 -411 28 7 63 10 79 7 l29 -5 -52 -63 c-148 -178 -366 -273 -563 -244 -128 19 -211 75 -263 179 -28 55 -29 66 -33 215 -7 266 37 521 135 782 129 342 269 529 436 581 56 18 181 18 239 0z m-1988 -198 c59 -59 59 -241 0 -359 -39 -77 -83 -97 -123 -54 -62 66 -67 246 -9 359 40 79 88 98 132 54z m1202 -213 c-104 -212 -152 -448 -145 -714 4 -119 3 -128 -10 -98 -34 83 -53 220 -48 343 7 137 27 219 86 340 35 73 147 232 157 222 2 -2 -16 -44 -40 -93z m-487 0 c31 -40 44 -100 38 -184 -10 -168 -95 -292 -158 -234 -42 38 -53 74 -52 169 1 104 26 185 75 241 37 41 69 44 97 8z m-986 -272 c24 -25 29 -35 19 -41 -9 -5 25 -27 100 -64 111 -56 122 -67 43 -46 -56 15 -208 70 -218 79 -7 6 -48 210 -47 234 1 6 17 -20 37 -59 19 -38 49 -85 66 -103z m2535 54 c149 -78 186 -348 77 -574 -117 -245 -353 -259 -425 -26 -23 75 -27 200 -9 286 16 78 81 209 124 252 69 69 169 95 233 62z m-2542 -324 c301 -132 702 -250 1072 -315 l74 -12 4 -60 c4 -68 36 -174 65 -222 l20 -32 -110 -203 c-61 -112 -114 -210 -119 -218 -7 -12 -27 -11 -148 9 -163 26 -349 69 -487 112 l-99 30 -25 57 c-56 126 -363 886 -363 898 0 4 6 4 13 1 6 -3 53 -23 103 -45z m2054 -242 c28 -25 31 -30 15 -30 -15 0 -11 -5 15 -21 30 -19 32 -23 16 -28 -15 -6 -10 -13 33 -46 28 -22 51 -41 51 -43 0 -5 -47 4 -75 14 l-20 7 20 -23 20 -23 -22 12 c-34 18 -69 71 -87 130 -27 91 -22 98 34 51z m-750 -497 c0 -31 -12 -63 -21 -57 -10 6 -12 58 -2 67 12 12 23 7 23 -10z m36 -90 c-10 -10 -19 5 -10 18 6 11 8 11 12 0 2 -7 1 -15 -2 -18z m-651 -248 c142 -28 295 -50 499 -70 82 -8 150 -16 152 -18 3 -3 -42 -133 -51 -148 -5 -8 -33 -2 -430 90 -143 33 -304 69 -358 81 -81 18 -97 25 -93 38 2 10 7 33 10 53 l6 35 73 -18 c39 -10 126 -29 192 -43z m944 -125 c76 -111 140 -230 190 -358 23 -56 41 -105 41 -109 0 -4 -19 11 -42 34 -65 62 -101 77 -188 78 -87 0 -157 -28 -225 -92 -25 -23 -48 -36 -60 -34 -11 2 -27 4 -34 6 -17 2 -17 53 -1 191 18 145 70 302 137 408 l37 59 43 -49 c24 -27 70 -87 102 -134z m-1278 108 c-8 -23 -43 -185 -56 -262 l-6 -38 -25 23 c-18 17 -40 24 -90 28 l-67 6 60 75 c71 89 168 190 183 190 6 0 6 -9 1 -22z m236 -122 c109 -25 239 -54 288 -66 50 -12 157 -37 238 -55 82 -18 151 -36 153 -38 3 -3 0 -42 -5 -88 -6 -46 -12 -115 -14 -153 l-3 -68 -37 -13 c-21 -7 -47 -21 -58 -31 -19 -17 -187 -282 -201 -317 -12 -27 0 -60 43 -127 l38 -59 -30 -61 c-37 -77 -59 -160 -59 -222 l0 -48 -50 0 -50 0 20 38 c45 86 89 342 60 342 -24 0 -50 -33 -50 -63 0 -23 -11 -41 -46 -75 -37 -35 -42 -43 -23 -38 20 6 18 1 -15 -28 -57 -52 -113 -76 -177 -76 -51 -1 -53 -2 -30 -14 24 -13 22 -14 -30 -18 -63 -5 -160 19 -246 59 l-58 28 -9 93 c-4 51 -6 95 -4 98 3 2 50 -5 106 -17 104 -21 142 -17 142 16 0 7 7 98 15 201 13 152 13 190 3 200 -7 6 -55 22 -106 34 l-93 22 6 62 c17 180 71 526 81 526 1 0 92 -20 201 -44z m-347 -201 c0 -8 -7 -15 -15 -15 -26 0 -18 20 13 29 1 1 2 -6 2 -14z m-110 -70 c73 -37 130 -95 130 -132 0 -60 -13 -123 -25 -123 -26 0 -33 -29 -43 -177 -10 -149 -11 -153 -39 -177 -25 -23 -29 -24 -38 -8 -25 41 -135 147 -187 179 -68 42 -68 20 4 237 33 100 48 162 47 188 -2 24 2 42 10 47 18 11 82 -4 141 -34z m-206 -8 c16 -25 -52 -226 -81 -238 -12 -4 -24 -17 -28 -28 -3 -10 -12 -24 -19 -30 -11 -10 -11 -4 0 30 18 51 9 64 -51 74 -25 3 -45 11 -45 16 0 5 18 45 40 88 41 82 52 91 130 104 34 6 42 3 54 -16z m1662 -238 c122 -59 274 -239 274 -324 0 -37 -7 -49 -157 -247 -118 -158 -137 -178 -162 -178 -34 0 -42 8 -83 91 -20 40 -59 92 -105 139 -57 58 -72 79 -67 95 4 11 31 81 62 155 76 186 83 213 70 250 -24 70 46 78 168 19z m-1840 -12 c7 -7 -20 -107 -38 -141 l-15 -28 -26 32 c-36 42 -41 68 -22 114 16 37 18 38 56 33 23 -3 43 -7 45 -10z m1612 -3 c22 -6 13 -58 -29 -159 -46 -114 -52 -123 -73 -106 -11 10 -21 5 -50 -25 -41 -42 -42 -41 -21 9 24 58 21 65 -45 84 l-61 18 50 81 c51 83 72 99 136 107 28 3 65 0 93 -9z m465 -29 c-3 -9 -8 -14 -10 -11 -3 3 -2 9 2 15 9 16 15 13 8 -4z m-1475 -49 c52 -14 96 -27 99 -30 6 -6 -16 -328 -23 -335 -2 -2 -45 4 -96 15 l-92 19 2 70 c2 74 14 285 16 285 0 0 43 -11 94 -24z m1542 8 c0 -8 -5 -12 -10 -9 -6 4 -8 11 -5 16 9 14 15 11 15 -7z m-2025 -133 c65 -33 162 -113 184 -154 13 -24 11 -28 -30 -77 -47 -56 -95 -90 -128 -90 -27 0 -27 17 -1 25 11 4 18 11 15 16 -10 16 5 30 23 20 22 -11 42 -3 42 16 0 28 -100 113 -181 154 -86 43 -83 37 -62 113 7 25 57 16 138 -23z m1274 -47 c6 -6 -31 -126 -47 -151 -21 -33 -33 -29 -64 21 -35 54 -35 76 -2 116 25 29 30 31 68 24 23 -3 43 -8 45 -10z m-1409 -69 c0 -1 -13 -26 -30 -56 -17 -31 -30 -69 -30 -90 0 -38 23 -80 37 -65 4 5 2 11 -5 13 -6 3 -10 9 -6 14 9 15 24 10 25 -8 0 -10 8 9 18 42 16 58 46 115 60 115 3 0 23 -14 44 -31 l38 -31 -18 -28 c-27 -41 -77 -96 -107 -115 -22 -15 -31 -16 -56 -5 -37 15 -44 39 -38 138 5 90 19 123 48 115 11 -3 20 -6 20 -8z m1484 -146 c75 -39 159 -126 201 -208 22 -43 13 -59 -63 -123 -42 -35 -65 -48 -89 -48 -18 0 -33 5 -33 10 0 6 6 10 14 10 7 0 16 9 19 20 4 16 11 19 36 14 43 -9 40 6 -13 74 -67 86 -117 131 -172 152 -56 21 -60 37 -22 98 18 30 24 33 52 28 17 -4 49 -16 70 -27z m-129 -139 l26 -10 -29 -25 c-40 -33 -72 -101 -72 -151 0 -26 3 -34 9 -25 7 11 10 9 16 -8 3 -11 10 -21 15 -21 13 0 36 39 45 75 7 31 55 114 66 115 4 0 23 -20 43 -44 l36 -44 -43 -51 c-82 -97 -130 -119 -171 -77 -35 34 -39 122 -10 224 15 54 23 59 69 42z m-630 -195 c115 -33 283 -63 401 -71 l94 -7 0 -40 0 -40 -112 6 c-176 9 -408 65 -570 136 -49 21 -54 31 -42 78 l6 21 68 -28 c37 -16 107 -41 155 -55z"/>
    <path d="M4175 5776 c-22 -7 -56 -21 -75 -31 -41 -21 -170 -112 -218 -154 l-33 -28 93 -5 c92 -5 206 -36 358 -97 61 -25 59 -22 -22 38 -31 22 -70 57 -85 78 -15 20 -39 47 -52 59 l-23 23 31 -9 c53 -17 85 -28 105 -36 17 -6 15 -1 -9 45 -28 50 -28 52 -9 66 10 8 39 22 64 31 25 10 49 21 55 26 14 13 -136 8 -180 -6z"/>
    <path d="M5432 4718 c-27 -27 -3 -87 27 -69 15 9 11 73 -4 78 -6 2 -16 -2 -23 -9z"/>
    <path d="M6084 4528 c-180 -123 -177 -528 4 -528 38 0 82 35 82 65 0 36 -21 42 -45 12 -26 -34 -58 -34 -84 -1 -85 108 -25 370 96 420 31 14 37 13 67 -5 25 -16 35 -18 44 -9 20 20 14 37 -20 58 -48 29 -88 25 -144 -12z"/>
    <path d="M6132 4414 c-36 -25 -62 -87 -62 -146 0 -135 109 -173 168 -58 61 121 -15 268 -106 204z"/>
    <path d="M3759 4064 c105 -268 203 -475 242 -510 l22 -19 -21 40 c-47 94 -51 210 -12 323 11 31 20 58 20 60 0 2 -26 -10 -57 -27 -31 -17 -59 -29 -62 -26 -2 3 -5 34 -5 69 0 63 0 64 -33 80 -19 9 -56 37 -83 62 l-49 46 38 -98z"/>
    <path d="M4605 3881 c-8 -27 1 -41 26 -41 16 0 20 6 17 27 -4 34 -33 43 -43 14z"/>
    <path d="M4717 3864 c-10 -10 -9 -52 2 -58 13 -8 33 20 29 40 -3 19 -20 28 -31 18z"/>
    <path d="M4636 3771 c-4 -5 -2 -12 3 -15 5 -4 12 -2 15 3 4 5 2 12 -3 15 -5 4 -12 2 -15 -3z"/>
    <path d="M4431 2946 c-20 -24 -10 -70 16 -74 27 -4 47 30 39 64 -7 27 -37 32 -55 10z"/>
    <path d="M4590 2926 c-7 -10 -10 -26 -6 -42 5 -19 12 -25 29 -22 18 2 22 9 22 38 0 39 -23 52 -45 26z"/>
    <path d="M4526 2803 c-12 -12 -6 -33 9 -33 8 0 15 6 15 14 0 17 -14 28 -24 19z"/>
    <path d="M5323 2183 c-15 -5 -18 -63 -3 -63 10 0 24 43 18 58 -1 5 -9 7 -15 5z"/>
    <path d="M5215 2150 c-3 -11 -3 -25 0 -30 10 -16 35 8 35 31 0 25 -27 24 -35 -1z"/>
    <path d="M2643 5453 c71 -154 127 -226 184 -238 26 -5 32 -3 38 15 17 55 -21 105 -165 215 -80 60 -82 61 -57 8z"/>
    <path d="M2235 5309 c102 -105 298 -229 389 -245 l39 -7 -33 62 c-38 70 -79 103 -187 152 -57 25 -220 79 -241 79 -3 0 12 -19 33 -41z"/>
    <path d="M2255 4919 c-90 -12 -327 -60 -434 -89 -125 -34 -89 -45 149 -45 247 0 378 24 548 102 53 24 55 26 32 33 -34 11 -208 10 -295 -1z"/>
    <path d="M2575 4712 c-87 -5 -107 -14 -252 -119 -81 -58 -150 -108 -153 -111 -31 -30 353 98 387 130 23 21 69 98 61 101 -2 1 -21 1 -43 -1z"/>
  </g>
</svg>