<?xml version="1.0" standalone="no"?><!DOCTYPE svg PUBLIC "-//W3C//DTD SVG 1.1//EN" "http://www.w3.org/Graphics/SVG/1.1/DTD/svg11.dtd"><svg t="1770882051055" class="icon" viewBox="0 0 1024 1024" version="1.1" xmlns="http://www.w3.org/2000/svg" p-id="6714" xmlns:xlink="http://www.w3.org/1999/xlink" width="200" height="200"><path d="M928.853333 187.946667a76.373333 76.373333 0 0 0-76.266666-76.373334H171.413333A76.373333 76.373333 0 0 0 95.146667 187.946667v648.106666a76.373333 76.373333 0 0 0 76.266666 76.373334h681.173334a76.373333 76.373333 0 0 0 76.266666-76.373334V187.946667zM171.52 154.24h681.066667a33.706667 33.706667 0 0 1 33.6 33.706667v354.453333a72.576 72.576 0 0 0-10.666667-4.48V187.946667a23.04 23.04 0 0 0-22.933333-23.04H171.413333A23.04 23.04 0 0 0 148.48 187.946667v349.973333c-3.669333 1.216-7.253333 2.709333-10.666667 4.48V187.946667c0-18.56 15.018667-33.642667 33.6-33.706667h0.106667z m492.16 195.52h-54.826667V320.64h106.666667a45.973333 45.973333 0 0 1 45.866667 45.866667v7.68a209.173333 209.173333 0 0 0-97.706667-24.426667z m-34.346667 42.666667h21.333334v141.973333h-21.333334v-141.973333z m64 2.773333a166.634667 166.634667 0 0 1 70.293334 30.826667l6.186666 4.693333a21.333333 21.333333 0 0 0 34.24-16.96V366.506667a88.64 88.64 0 0 0-88.533333-88.533334H608v-11.306666a21.333333 21.333333 0 0 0-21.333333-21.333334H533.333333a21.333333 21.333333 0 0 0-21.333333 21.333334v128a21.333333 21.333333 0 0 0 21.333333 21.333333h53.333334v118.4h-170.666667l-6.72-99.733333c70.890667-40.704 74.517333-141.653333 6.72-187.306667A21.333333 21.333333 0 0 0 384 271.573333l10.666667 34.88-38.506667 28.053334-38.613333-28.053334 13.12-38.826666a21.333333 21.333333 0 0 0-30.826667-25.173334 110.613333 110.613333 0 0 0-1.92 192l-6.72 100.373334H191.146667V207.573333h641.706666v326.826667H693.333333v-139.2z m-128-107.2v85.333333H554.666667v-85.333333h10.666666z m-186.453333 113.92c-44.501333 17.642667-92.736-15.189333-92.693333-63.04a24.149333 24.149333 0 0 1 0-2.773333l57.706666 42.026666a21.333333 21.333333 0 0 0 25.173334 0l52.693333-38.4a67.306667 67.306667 0 0 1-42.88 62.186667zM339.626667 448c4.778667 0.682667 9.6 1.045333 14.4 1.066667 4.394667 0 8.768-0.298667 13.12-0.853334l6.186666 86.186667h-39.466666l5.76-86.4z m546.56 388.053333a33.706667 33.706667 0 0 1-33.6 33.706667H171.413333a33.706667 33.706667 0 0 1-33.6-33.706667V610.773333c0-18.56 15.018667-33.642667 33.6-33.706666h681.173334a33.706667 33.706667 0 0 1 33.6 33.706666v225.28z" p-id="6715"></path><path d="M660.48 652.693333H363.52a21.333333 21.333333 0 0 0-21.333333 21.333334v73.493333a21.333333 21.333333 0 0 0 21.333333 21.333333h296.96a21.333333 21.333333 0 0 0 21.333333-21.333333v-73.493333a21.333333 21.333333 0 0 0-21.333333-21.333334z m-21.333333 73.493334H384.853333v-30.826667h254.293334v30.826667z" p-id="6716"></path></svg>