<?xml version="1.0" standalone="no"?><!DOCTYPE svg PUBLIC "-//W3C//DTD SVG 1.1//EN" "http://www.w3.org/Graphics/SVG/1.1/DTD/svg11.dtd"><svg t="1770879491169" class="icon" viewBox="0 0 1024 1024" version="1.1" xmlns="http://www.w3.org/2000/svg" p-id="12879" xmlns:xlink="http://www.w3.org/1999/xlink" width="200" height="200"><path d="M698.158545 1024h-372.363636C145.873455 1024 0 878.126545 0 698.181818V325.818182C0 145.873455 145.873455 0 325.794909 0h372.363636C878.126545 0 1024 145.873455 1024 325.818182v372.363636c0 179.944727-145.873455 325.818182-325.841455 325.818182z m1.489455-733.160727a45.381818 45.381818 0 0 0-45.242182 45.474909c0 78.894545-63.813818 143.034182-142.336 143.034182-78.522182 0-142.359273-64.139636-142.359273-143.034182a45.381818 45.381818 0 0 0-45.242181-45.474909 45.381818 45.381818 0 0 0-45.242182 45.474909c0 128.954182 104.354909 233.821091 232.704 233.821091 128.349091 0 232.704-104.866909 232.704-233.821091a44.893091 44.893091 0 0 0-44.986182-45.474909z" fill="#1296db" p-id="12880"></path></svg>