<?xml version="1.0" standalone="no"?><!DOCTYPE svg PUBLIC "-//W3C//DTD SVG 1.1//EN" "http://www.w3.org/Graphics/SVG/1.1/DTD/svg11.dtd"><svg t="1770881728586" class="icon" viewBox="0 0 1102 1024" version="1.1" xmlns="http://www.w3.org/2000/svg" p-id="2727" xmlns:xlink="http://www.w3.org/1999/xlink" width="215.234375" height="200"><path d="M789.342854 90.834819c19.73506 1.788012 38.858179 6.568792 57.369359 14.342339a94.104872 94.104872 0 0 1 9.56156 38.24624 2724.662094 2724.662094 0 0 1-47.807799 262.942896c26.791491 80.85255 34.75627 163.713028 23.903899 248.600556-62.752517 161.437376-182.272015 234.736294-358.558494 219.915876-337.092792 1.051772-458.199509-158.301185-363.339274-478.077992a2042.779454 2042.779454 0 0 0-57.369359-224.696657c9.246028-36.209627 33.149928-53.735966 71.711699-52.588579a3852.448078 3852.448078 0 0 1 152.984957 28.68468c116.09646-41.114707 232.431958-44.308268 348.996935-9.56156 54.022813-20.624285 108.198611-36.563405 162.546517-47.807799z" fill="#9A938B" opacity=".971" p-id="2728"></path><path d="M818.027534 157.765737c0.621501-4.187963-0.965718-7.381524-4.78078-9.561559a489.637918 489.637918 0 0 0-23.9039 38.246239c0.286847-9.532875-4.493933-15.910436-14.34234-19.12312a200.19994 200.19994 0 0 0-43.027019 28.68468c-33.436775 0-70.086234 12.745559-109.957938 38.246239-10.976671-9.159974-20.538231-5.975975-28.68468 9.56156-16.388514-13.625223-29.134073-10.441223-38.246239 9.56156-18.406003-23.645738-35.932342-23.645738-52.588579 0a468.296517 468.296517 0 0 0-86.054039 0c-13.290568-16.283336-27.632908-22.660897-43.027019-19.12312-15.030772 19.98366-32.566673 19.98366-52.588579 0-21.083239 8.356803-38.609579 1.988804-52.58858-19.123119-12.124058 1.109141-24.879179 4.302702-38.246239 9.561559a69.713333 69.713333 0 0 1-19.12312-28.684679c-6.37756 25.50068-12.745559 25.50068-19.123119 0-9.513752 5.411843-17.478531 11.789403-23.9039 19.12312-13.7304-17.392477-29.66952-20.576477-47.807799-9.56156a524.929636 524.929636 0 0 1 66.930919 66.930919l-52.588579 86.054038a1654.408016 1654.408016 0 0 1-43.02702-200.792757 834.800667 834.800667 0 0 1 196.011977 28.68468c111.679019-47.520952 224.830518-50.714513 339.435375-9.56156 62.848133-33.71406 129.779052-49.65318 200.792757-47.807799 2.26609 12.343974-0.91791 21.905534-9.56156 28.684679z" fill="#E8D5B8" p-id="2729"></path><path d="M731.973495 196.011977a367.546361 367.546361 0 0 1-47.807799 52.588579 526.555101 526.555101 0 0 1 57.369359 100.396378 1345.598317 1345.598317 0 0 1-81.273259 38.24624 496.38838 496.38838 0 0 1-119.519498-9.56156c16.98133-2.811099 36.10445-4.398318 57.369359-4.78078a278.35613 278.35613 0 0 1 47.807799-23.9039c-34.63197-11.081848-69.69421-12.669067-105.177158-4.780779-15.69052 10.795001-25.25208 25.137341-28.684679 43.027019-2.973645 9.351206-9.351206 15.728766-19.12312 19.12312-42.443764-11.349572-85.470783-11.349572-129.081058 0a23.215467 23.215467 0 0 1-4.78078-19.12312c-0.095616-14.504886-6.473176-25.663227-19.12312-33.46546-35.903657-7.218978-70.965897-5.631759-105.177158 4.78078-20.90157 21.609125-40.02469 18.425126-57.369359-9.56156l38.246239-76.492478c-8.930497-24.879179-24.869617-44.002298-47.807799-57.369359 6.425368-7.333716 14.390148-13.711277 23.9039-19.12312 6.37756 25.50068 12.745559 25.50068 19.123119 0a69.713333 69.713333 0 0 0 19.12312 28.684679c13.367061-5.258858 26.122182-8.452419 38.246239-9.561559 13.979 21.111924 31.50534 27.479923 52.58858 19.123119 20.021906 19.98366 37.557807 19.98366 52.588579 0 15.394111-3.537777 29.736451 2.839783 43.027019 19.12312a468.296517 468.296517 0 0 1 86.054039 0c16.656237-23.645738 34.182576-23.645738 52.588579 0 9.112167-20.002783 21.857726-23.186783 38.246239-9.56156 8.146449-15.537535 17.708009-18.721534 28.68468-9.56156 39.871705-25.50068 76.521163-38.246239 109.957938-38.246239z" fill="#E4D0B3" p-id="2730"></path><path d="M818.027534 157.765737a1181.168173 1181.168173 0 0 1-33.46546 200.792757l-62.150139-105.177158a332.962199 332.962199 0 0 1 66.930919-66.930919 489.637918 489.637918 0 0 1 23.9039-38.246239c3.815062 2.180036 5.402281 5.373597 4.78078 9.561559z" fill="#F0E8D1" p-id="2731"></path><path d="M540.742298 377.681614a54.768615 54.768615 0 0 1-28.684679 9.56156c3.4326-17.889678 12.99416-32.232018 28.684679-43.027019 35.482949-7.888287 70.545189-6.301068 105.177158 4.780779a278.35613 278.35613 0 0 0-47.807799 23.9039c-21.264909 0.382462-40.388029 1.969681-57.369359 4.78078z" fill="#42403D" p-id="2732"></path><path d="M177.403024 348.996934c17.34467 27.986686 36.467789 31.170685 57.369359 9.56156 3.929801 21.723864 15.088141 24.907863 33.465459 9.56156a155.260609 155.260609 0 0 0 43.02702 19.12312c16.082544-12.496959 32.012102-12.496959 47.807799 0a23.215467 23.215467 0 0 0 4.78078 19.12312c43.610274-11.349572 86.637294-11.349572 129.081058 0 9.771914-3.394354 16.149475-9.771914 19.12312-19.12312a54.768615 54.768615 0 0 0 28.684679-9.56156 496.38838 496.38838 0 0 0 119.519498 9.56156 1345.598317 1345.598317 0 0 0 81.273259-38.24624c20.002783 24.745317 32.748342 53.429996 38.246239 86.054039-35.760234 16.541499-70.812912 29.287058-105.177158 38.246239-20.461738-5.794305-41.181638-2.610306-62.150139 9.56156l-9.56156-9.56156a1144.279675 1144.279675 0 0 1-167.327297 19.12312c-52.034009-10.077884-101.438588-10.077884-148.204178 0-5.784744-18.94145-15.346304-22.135011-28.684679-9.56156a549.493283 549.493283 0 0 0-86.054039-28.684679c-15.107265 6.425368-26.256043 0.047808-33.46546-19.12312 5.182365-32.624042 17.927925-61.308722 38.24624-86.054039z" fill="#E1CCAF" p-id="2733"></path><path d="M359.072661 387.243174c-15.795697-12.496959-31.725256-12.496959-47.807799 0a155.260609 155.260609 0 0 1-43.02702-19.12312c-18.377318 15.346304-29.535658 12.162304-33.465459-9.56156 34.211261-10.412539 69.273501-11.999758 105.177158-4.78078 12.649944 7.802233 19.027504 18.960573 19.12312 33.46546z" fill="#403E3B" p-id="2734"></path><path d="M139.156784 435.050973c7.209416 19.170927 18.358195 25.548488 33.46546 19.12312 29.401797 7.17117 58.086476 16.73273 86.054039 28.684679 13.338376-12.573451 22.899936-9.37989 28.684679 9.56156 46.765589-10.077884 96.170169-10.077884 148.204178 0 56.709611-2.313897 112.491752-8.701019 167.327297-19.12312l9.56156 9.56156c20.968501-12.171866 41.688401-15.355865 62.150139-9.56156 34.364246-8.968743 69.416924-21.704741 105.177158-38.246239 41.277254 91.045173 38.083693 180.283211-9.56156 267.723676-51.536808-64.253682-118.467727-99.306361-200.792756-105.177158 14.581379-14.686556 33.704498-24.248116 57.369359-28.68468-29.019334-4.761657-52.923234-17.516778-71.711699-38.246239l-9.56156 9.561559c-1.099579 40.235044-7.47714 81.674844-19.12312 124.300278-2.658114 8.758389-7.438894 15.126388-14.342339 19.12312-23.827407-12.181427-49.337649-18.549426-76.492479-19.12312a47.157613 47.157613 0 0 1 4.78078-28.684679c46.784712-35.052678 40.416713-57.359798-19.12312-66.930919-24.123815-0.353778-38.466155 10.804563-43.027019 33.465459 18.453811 16.197282 28.01537 36.907621 28.684679 62.150139-17.124754-1.281249-33.063874 1.912312-47.807799 9.56156-11.95195-0.73624-19.916729-7.113801-23.9039-19.123119a473.517128 473.517128 0 0 1-14.342339-124.300278 406.853933 406.853933 0 0 0-76.492479 33.465459c15.623589 4.713849 31.553147 6.310629 47.807799 4.78078 2.725045 18.310387-0.468516 34.239946-9.56156 47.807799-24.554086-10.928863-50.054766-9.332082-76.492479 4.78078l-57.369359 38.24624c-12.649944 7.802233-19.027504 18.960573-19.123119 33.465459-39.393627-87.459588-36.200066-173.513627 9.561559-258.162116z" fill="#DDC8AB" p-id="2735"></path><path d="M569.426978 597.597491c82.32503 5.870798 149.255949 40.923476 200.792756 105.177158-16.799661 47.090682-48.66834 80.556142-95.615598 100.396378-65.3437 28.32134-133.871399 39.470119-205.573537 33.46546-111.87025 12.726436-212.266629-14.361463-301.189135-81.273259a369.38218 369.38218 0 0 1-38.246239-62.150139c0.095616-14.504886 6.473176-25.663227 19.123119-33.465459l57.369359-38.24624c26.437713-14.112862 51.938393-15.709643 76.492479-4.78078-5.191927 0.573694-8.375926 3.757693-9.56156 9.56156a1138.093346 1138.093346 0 0 0 86.054039 100.396378c55.399678 19.773306 109.575476 16.589306 162.546517-9.561559 23.999515-22.240188 36.754636-49.328087 38.24624-81.273259 16.503252 3.011891 32.432811 4.59911 47.807799 4.78078-20.423492-8.375926-33.169051-22.718266-38.246239-43.027019z" fill="#EEE6D0" p-id="2736"></path><path d="M359.072661 674.089969c-10.154377 10.278677-10.154377 19.840237 0 28.68468 46.918574-24.267239 94.726373-24.267239 143.423398 0 7.620563-4.369633 10.804563-10.747193 9.56156-19.12312 6.903446-3.996732 11.684226-10.364731 14.342339-19.12312 11.64598-42.625434 18.02354-84.065234 19.12312-124.300278l9.56156-9.561559c18.788465 20.729462 42.692365 33.484583 71.711699 38.246239-23.664861 4.436564-42.78798 13.998124-57.369359 28.68468 5.077188 20.308753 17.822748 34.651093 38.246239 43.027019a285.087468 285.087468 0 0 1-47.807799-4.78078c-1.491603 31.945171-14.246724 59.033071-38.24624 81.273259-52.971042 26.150866-107.14684 29.334866-162.546517 9.561559a1138.093346 1138.093346 0 0 1-86.054039-100.396378c1.185633-5.803867 4.369633-8.987866 9.56156-9.56156 9.093043-13.567853 12.286604-29.497412 9.56156-47.807799-16.254652 1.52985-32.18421-0.066931-47.807799-4.78078a406.853933 406.853933 0 0 1 76.492479-33.465459 473.517128 473.517128 0 0 0 14.342339 124.300278c3.98717 12.009319 11.95195 18.38688 23.9039 19.123119z" fill="#A1998E" p-id="2737"></path><path d="M512.057619 683.651529c1.243003 8.375926-1.940997 14.753487-9.56156 19.12312-48.697024-24.267239-96.504824-24.267239-143.423398 0-10.154377-8.844443-10.154377-18.406003 0-28.68468 14.743925-7.649248 30.683046-10.842809 47.807799-9.56156-0.669309-25.242518-10.230869-45.952857-28.684679-62.150139 4.560864-22.660897 18.903204-33.819237 43.027019-33.465459 59.539833 9.571121 65.907832 31.878241 19.12312 66.930919a47.157613 47.157613 0 0 0-4.78078 28.684679c27.15483 0.573694 52.665072 6.941692 76.492479 19.12312z" fill="#56524B" p-id="2738"></path></svg>